<?xml version="1.0" encoding="UTF-8" standalone="no"?>
<!DOCTYPE svg PUBLIC "-//W3C//DTD SVG 1.0//EN" "http://www.w3.org/TR/2001/PR-SVG-20010719/DTD/svg10.dtd">
<svg width="20cm" height="13cm" viewBox="138 159 383 243" xmlns="http://www.w3.org/2000/svg" xmlns:xlink="http://www.w3.org/1999/xlink">
  <g>
    <rect style="fill: #ffffff" x="140" y="360" width="380" height="40"/>
    <rect style="fill: none; fill-opacity:0; stroke-width: 2.4; stroke: #000000" x="140" y="360" width="380" height="40"/>
    <text style="fill: #000000;text-anchor:middle;font-size:11.2;font-family:sanserif;font-style:normal;font-weight:normal" x="330" y="383.4">
      <tspan x="330" y="383.4"></tspan>
    </text>
  </g>
  <text style="fill: #000000;text-anchor:middle;font-size:12.8;font-family:sanserif;font-style:normal;font-weight:normal" x="320" y="384.425">
    <tspan x="320" y="384.425">Memory Bus</tspan>
  </text>
  <g>
    <polygon style="fill: #ffffff" points="410,340 410,300 400,300 420,280 440,300 430,300 430,340 440,340 420,360 400,340 "/>
    <polygon style="fill: none; fill-opacity:0; stroke-width: 2; stroke: #000000" points="410,340 410,300 400,300 420,280 440,300 430,300 430,340 440,340 420,360 400,340 "/>
    <polygon style="fill: none; fill-opacity:0; stroke-width: 2; stroke: #000000" points="410,340 410,300 400,300 420,280 440,300 430,300 430,340 440,340 420,360 400,340 "/>
  </g>
  <g>
    <rect style="fill: #ffffff" x="360" y="160" width="120" height="120"/>
    <rect style="fill: none; fill-opacity:0; stroke-width: 2; stroke: #000000" x="360" y="160" width="120" height="120"/>
    <text style="fill: #000000;text-anchor:middle;font-size:12.8;font-family:sanserif;font-style:normal;font-weight:normal" x="420" y="223.9">
      <tspan x="420" y="223.9">CPU1</tspan>
    </text>
  </g>
  <g>
    <rect style="fill: #ffffff" x="180" y="160" width="120" height="120"/>
    <rect style="fill: none; fill-opacity:0; stroke-width: 2; stroke: #000000" x="180" y="160" width="120" height="120"/>
    <text style="fill: #000000;text-anchor:middle;font-size:12.8;font-family:sanserif;font-style:normal;font-weight:normal" x="240" y="223.9">
      <tspan x="240" y="223.9">CPU0</tspan>
    </text>
  </g>
  <g>
    <polygon style="fill: none; fill-opacity:0; stroke-width: 2; stroke: #000000" points="230,340 230,300 220,300 240,280 260,300 250,300 250,340 260,340 240,360 220,340 "/>
    <polygon style="fill: none; fill-opacity:0; stroke-width: 2; stroke: #000000" points="230,340 230,300 220,300 240,280 260,300 250,300 250,340 260,340 240,360 220,340 "/>
  </g>
</svg>
